<svg id="Layer_1" data-name="Layer 1" xmlns="http://www.w3.org/2000/svg" viewBox="0 0 200.17 46.86"><defs><style>.cls-1{fill:#7e829c;fill-rule:evenodd;}</style></defs><title>carpediem</title><path class="cls-1" d="M176.71,94.64c3.17-3.9,8.46-3.41,10.82.38.36-.42.66-.85,1-1.19,3-2.78,8.07-2.52,10.18.51A7.91,7.91,0,0,1,200,99c0,3.5,0,7,0,10.49,0,.89-.3,1.13-1.12,1.05-1-.12-2.37.44-3-.24s-.15-1.94-.16-2.94c0-2.56,0-5.13,0-7.68-.11-3.16-2.78-4.79-5.4-3.37a3.64,3.64,0,0,0-1.91,3.32q-.09,4.88-.05,9.75c0,.89-.19,1.18-1.13,1.17-3.14,0-3.14,0-3.15-3.15,0-2.56,0-5.13-.06-7.68s-1.42-3.89-3.6-3.86a3.76,3.76,0,0,0-3.71,4c-.07,3.17-.06,6.34,0,9.51,0,.86-.14,1.29-1.12,1.16s-2.36.44-3-.25-.17-1.94-.17-2.94c0-4.64,0-9.27,0-13.91,0-.84.23-1.2,1.09-1.08a6,6,0,0,0,.85,0C176.45,92.34,176.45,92.34,176.71,94.64Z" transform="translate(0.17 -75.94)"/><path class="cls-1" d="M115,98.4c0-3.61,0-7.23,0-10.85,0-.87.17-1.22,1.13-1.18,3.2.13,6.42-.13,9.62.16a11.94,11.94,0,0,1,.74,23.74c-3.6.52-7.22.12-10.83.24-.84,0-.63-.57-.64-1Zm4.29,0c0,2.4,0,4.8,0,7.19,0,.52,0,1,.73.93,1.54,0,3.09.06,4.63-.06,4.21-.32,7.21-3.14,7.5-7,.36-4.63-1.9-8-6.09-8.93-2-.46-4.13-.16-6.2-.21-.72,0-.55.56-.55,1C119.32,93.74,119.33,96.09,119.33,98.45Z" transform="translate(0.17 -75.94)"/><path class="cls-1" d="M64.76,94.23c.25.08.33-.09.43-.2a7.15,7.15,0,0,1,7.92-2.31A8.14,8.14,0,0,1,79,98.23a10.33,10.33,0,0,1-1.68,8.91,7.94,7.94,0,0,1-12.07.76c-.11-.12-.23-.22-.56-.52v6.2c0,1.86,0,1.86-1.86,1.86-2.37,0-2.37,0-2.37-2.42,0-6.71,0-13.42,0-20.13,0-.91.22-1.29,1.13-1.12a2.09,2.09,0,0,0,.25,0c.89,0,2-.25,2.62.13S64.51,93.47,64.76,94.23ZM75,101c0-2.95-1.71-5.36-4.2-5.75A5.08,5.08,0,0,0,65,98.66a6,6,0,0,0,2.36,7.26C70.94,107.94,74.87,105.37,75,101Z" transform="translate(0.17 -75.94)"/><path class="cls-1" d="M-.17,97.85a12.35,12.35,0,0,1,14.3-12.32,13,13,0,0,1,7,3.11c.5.44.61.74.11,1.26-.72.72-1.21,1.82-2.06,2.2-1,.46-1.61-.89-2.44-1.37a8.06,8.06,0,0,0-9.8.85,9.12,9.12,0,0,0-1.37,10.81c2.47,4.28,7.69,5.26,11.89,2.22,1.8-1.3,1.8-1.3,3.33.26,1.24,1.26,1.2,1.22-.14,2.44-6.15,5.58-18.56,3.79-20.6-7C-.09,99.48-.09,98.66-.17,97.85Z" transform="translate(0.17 -75.94)"/><path class="cls-1" d="M37.08,107.9a8.47,8.47,0,0,1-7.77,2.22,5.66,5.66,0,0,1-.53-11,13.17,13.17,0,0,1,7.1,0c1,.25,1.22,0,1-1A3.36,3.36,0,0,0,34,95.45a10.18,10.18,0,0,0-5.72.7c-.69.28-1,.15-1.22-.55-1-2.75-1-2.81,1.87-3.6a15.41,15.41,0,0,1,6-.4c3.85.44,6.12,3,6.21,6.88.08,3.53,0,7.07,0,10.61,0,.62-.15.9-.81.85a10.42,10.42,0,0,0-1.58,0C37.61,110.06,36.52,110.08,37.08,107.9Zm-4.88-.81c3,0,5-1.8,4.85-4.14,0-.44-.15-.66-.57-.78a10.39,10.39,0,0,0-5.39-.26c-2.1.56-2.89,2.84-1.51,4.21A3.84,3.84,0,0,0,32.2,107.09Z" transform="translate(0.17 -75.94)"/><path class="cls-1" d="M50.55,95.24a9.5,9.5,0,0,1,1.62-2.18,5.78,5.78,0,0,1,1.93-1.25c2.36-1,2.75-.68,2.74,1.8a5.36,5.36,0,0,1-.08,2c-.29.64-1.17.25-1.78.41A5.92,5.92,0,0,0,50.51,102c-.09,2.31-.08,4.63,0,6.94,0,.83-.27,1-1,1-3.3,0-3.3,0-3.3-3.25,0-4.63,0-9.26,0-13.88,0-.87.25-1.16,1.1-1.07,1,.11,2.37-.43,3,.22S50.35,94,50.55,95.24Z" transform="translate(0.17 -75.94)"/><path class="cls-1" d="M81.3,76.1c2.27,3.86,5.24,6.73,10,6.78s7.62-2.83,9.79-6.73a14.91,14.91,0,0,1-1.4,4.92,14.28,14.28,0,0,1-3.73,5.49,6.6,6.6,0,0,1-9.16-.09,19.68,19.68,0,0,1-4.85-7.63c-.34-.84-.62-1.71-.93-2.57Z" transform="translate(0.17 -75.94)"/><path class="cls-1" d="M145.93,101.44c0,2.72,0,5.44,0,8.16,0,.66-.16.9-.87.92-3.39.09-3.39.12-3.39-3.25,0-4.59,0-9.17,0-13.76,0-.85.13-1.2,1.1-1.19,3.15,0,3.15,0,3.15,3.16Z" transform="translate(0.17 -75.94)"/><path class="cls-1" d="M91.06,95.05c-2.15,0-4.31,0-6.46,0-1.48,0-2.33-.71-2.36-1.89a2,2,0,0,1,2.26-2c4.43,0,8.86,0,13.29,0A2,2,0,0,1,100,93.19c0,1.17-.83,1.84-2.24,1.86C95.54,95.06,93.3,95.05,91.06,95.05Z" transform="translate(0.17 -75.94)"/><path class="cls-1" d="M91.16,106.83c2.19,0,4.39,0,6.58,0,1.42,0,2.21.66,2.27,1.83a2,2,0,0,1-2.19,2.08q-6.72.06-13.42,0a2,2,0,0,1-2.17-2c0-1.14.86-1.89,2.22-1.91C86.68,106.81,88.92,106.83,91.16,106.83Z" transform="translate(0.17 -75.94)"/><path class="cls-1" d="M159.81,103.18h-6.58c-1.46,0-2.26-.72-2.26-2s.79-1.93,2.27-1.93q6.6,0,13.18,0a2,2,0,0,1,2.3,2c0,1.18-.9,1.93-2.32,1.94Z" transform="translate(0.17 -75.94)"/><path class="cls-1" d="M159.9,111c-2.24,0-4.47,0-6.71,0-1.44,0-2.24-.74-2.22-2a1.92,1.92,0,0,1,2.19-1.91q6.66,0,13.3,0a2,2,0,1,1,0,3.9C164.29,111,162.09,111,159.9,111Z" transform="translate(0.17 -75.94)"/><path class="cls-1" d="M159.79,95.32h-6.46c-1.48,0-2.32-.69-2.34-1.88s.83-2,2.39-2q6.45,0,12.91,0c1.5,0,2.3.67,2.32,1.88s-.8,2-2.37,2Z" transform="translate(0.17 -75.94)"/><path class="cls-1" d="M91.12,102.84h-6.7a1.94,1.94,0,0,1-2.18-1.91c0-1.14.85-1.89,2.2-1.89q6.7,0,13.4,0c1.36,0,2.17.74,2.17,1.91s-.82,1.88-2.19,1.89Z" transform="translate(0.17 -75.94)"/><path class="cls-1" d="M88.33,78.72A2.72,2.72,0,1,1,91,81.46,2.73,2.73,0,0,1,88.33,78.72Z" transform="translate(0.17 -75.94)"/><path class="cls-1" d="M143.88,89.55c-2.22,0-2.22,0-2.22-2.21,0-1.72,0-1.72,2.12-1.72,2.29,0,2.29,0,2.29,2.17C146.07,89.55,146.07,89.55,143.88,89.55Z" transform="translate(0.17 -75.94)"/><path class="cls-1" d="M24,116.16c-.08.31-.31,1.08-.69,2.32h1.39c-.35-1.16-.56-1.81-.6-2A3.56,3.56,0,0,1,24,116.16Z" transform="translate(0.17 -75.94)"/><path class="cls-1" d="M57,113.21H1.11a1.27,1.27,0,0,0-1.28,1.27v7a1.27,1.27,0,0,0,1.28,1.27H57a1.27,1.27,0,0,0,1.27-1.27v-7A1.27,1.27,0,0,0,57,113.21ZM8.85,120.7H7.72v-2.31H5.6v2.31H4.47v-5.35H5.6v2.1H7.72v-2.1H8.85Zm8.26-4.42H15.16v1.17H17v.94H15.16v1.38h1.95v.93H14v-5.35h3.08Zm8.21,4.42-.39-1.27H23l-.38,1.27H21.37l1.89-5.37h1.39l1.9,5.37Zm9,0H31v-5.35h1.14v4.42h2.17Zm8.27-4.4H41.16v4.4H40v-4.4H38.58v-1h4Zm9,4.4H50.52v-2.31H48.4v2.31H47.26v-5.35H48.4v2.1h2.12v-2.1h1.13Z" transform="translate(0.17 -75.94)"/><path class="cls-1" d="M198.73,113.21H68.64a1.27,1.27,0,0,0-1.28,1.27v7a1.27,1.27,0,0,0,1.28,1.27H198.73a1.27,1.27,0,0,0,1.27-1.27v-7A1.27,1.27,0,0,0,198.73,113.21Zm-115,3.07h-2v1.38h1.81v.93H81.74v2.11H80.62v-5.35h3.07Zm14.85,4.42H97.4v-5.35h1.14Zm17.53-4.4h-1.45v4.4h-1.14v-4.4H112v-1h4Zm18.24,4.4h-1.44l-2.33-4h0q.06,1.08.06,1.53v2.52h-1v-5.35H131l2.33,4h0c0-.7-.05-1.19-.05-1.48v-2.53h1Zm17.09-4.42h-1.94v1.17h1.81v.94h-1.81v1.38h1.94v.93h-3.08v-5.35h3.08Zm16.42,4.08a2.24,2.24,0,0,1-1.45.42,3.32,3.32,0,0,1-1.51-.33v-1a6.8,6.8,0,0,0,.91.34,2.55,2.55,0,0,0,.69.1.92.92,0,0,0,.57-.15.46.46,0,0,0,.2-.42.54.54,0,0,0-.08-.28,1.23,1.23,0,0,0-.26-.24c-.12-.07-.35-.19-.7-.36a3.23,3.23,0,0,1-.73-.44,1.45,1.45,0,0,1-.39-.5,1.33,1.33,0,0,1-.15-.65,1.38,1.38,0,0,1,.48-1.12,2,2,0,0,1,1.33-.41,3.5,3.5,0,0,1,.8.1,6.31,6.31,0,0,1,.79.28l-.37.88c-.28-.11-.52-.19-.7-.24a2.2,2.2,0,0,0-.56-.07.74.74,0,0,0-.49.15.51.51,0,0,0-.17.39.44.44,0,0,0,.07.26.66.66,0,0,0,.22.22,6.7,6.7,0,0,0,.72.37,2.93,2.93,0,0,1,1,.72,1.45,1.45,0,0,1,.28.89A1.39,1.39,0,0,1,167.82,120.36Zm16.8,0a2.26,2.26,0,0,1-1.45.42,3.37,3.37,0,0,1-1.52-.33v-1a7.41,7.41,0,0,0,.92.34,2.55,2.55,0,0,0,.69.1.92.92,0,0,0,.57-.15.48.48,0,0,0,.2-.42.47.47,0,0,0-.09-.28,1,1,0,0,0-.26-.24q-.17-.1-.69-.36a3.34,3.34,0,0,1-.74-.44,1.73,1.73,0,0,1-.39-.5,1.33,1.33,0,0,1-.14-.65,1.38,1.38,0,0,1,.48-1.12,2,2,0,0,1,1.33-.41,3.35,3.35,0,0,1,.79.1,5.9,5.9,0,0,1,.8.28l-.37.88a7.45,7.45,0,0,0-.71-.24,2.08,2.08,0,0,0-.55-.07.72.72,0,0,0-.49.15.48.48,0,0,0-.18.39.53.53,0,0,0,.07.26.81.81,0,0,0,.23.22,7.27,7.27,0,0,0,.71.37,2.75,2.75,0,0,1,1,.72,1.39,1.39,0,0,1,.28.89A1.38,1.38,0,0,1,184.62,120.36Z" transform="translate(0.17 -75.94)"/></svg>