<svg id="Layer_1" data-name="Layer 1" xmlns="http://www.w3.org/2000/svg" viewBox="0 0 15 27.15"><defs><style>.cls-1{fill:#fff;}</style></defs><title>favmilos</title><path class="cls-1" d="M15,16.46c0,.15-.05.3-.07.45a.23.23,0,0,1-.06.12l-.15-.66h0c0,.08,0,.16,0,.23,0,.38,0,.76,0,1.14a3.72,3.72,0,0,1-.43,1.73,4.39,4.39,0,0,1-.27.47l.08-.87h0c-.07.16-.13.34-.21.5s-.26.5-.41.74a5.1,5.1,0,0,0-.67,2c0,.13,0,.27-.07.41a.47.47,0,0,1-.06.09s-.05-.06-.05-.09-.07-.29-.11-.47c-.06.27-.09.51-.16.74a3.61,3.61,0,0,1-.28.68,4.86,4.86,0,0,1-.42.59,6.51,6.51,0,0,1-.51.54,2.34,2.34,0,0,0,0-1.05A6.81,6.81,0,0,1,10,26l0,0a1.7,1.7,0,0,1,0-.22c.07-.42.15-.84.23-1.26a1.34,1.34,0,0,0,0-.2h0c-.06.14-.13.27-.19.42-.14.38-.27.77-.41,1.16,0,.1-.11.2-.16.3h0v-.88H9.25l-.63,2c-.11-.51-.18-1-.32-1.49s-.34-.93-.51-1.4h0l-.17,1.71H7.51a4.92,4.92,0,0,0-1.08-1.84l.17.57v0l-.37-.35-.88-.82a2.07,2.07,0,0,1-.6-1.35c0-.12,0-.23,0-.39-.1.2-.07.41-.17.56h0c0-.2-.1-.41-.14-.61s-.1-.44-.14-.66a3.91,3.91,0,0,0-.44-1.15c-.16-.29-.27-.6-.41-.9a.31.31,0,0,0-.09-.12l.09.91a4,4,0,0,1-.69-2.16c0-.44,0-.88,0-1.32,0,0,0-.08,0-.11H2.63L2.47,17h0l-.06-.38a4.32,4.32,0,0,1,.24-1.85c.07-.19.1-.39.16-.57L3.2,13a4.83,4.83,0,0,0,.33-1,13.62,13.62,0,0,0,.07-1.44V9.91c.1.33.2.69.33,1a6.45,6.45,0,0,0,.29.59.16.16,0,0,1,0,.15.58.58,0,0,0-.1.64,6.68,6.68,0,0,0,.59,1.56.64.64,0,0,0,.73.39,1.12,1.12,0,0,0,.69-.33l.68-.69A1.16,1.16,0,0,1,8,12.91a2.36,2.36,0,0,0,.53.1,3.27,3.27,0,0,0,.54,0l.48-.09a.79.79,0,0,1,.71.19c.29.26.58.52.84.8a1.2,1.2,0,0,0,1.18.37.54.54,0,0,0,.39-.34,2.71,2.71,0,0,1,.23-.41A3.91,3.91,0,0,0,13.4,12a.13.13,0,0,0,0-.11c-.06-.09-.12-.16-.2-.26a3.47,3.47,0,0,0,.66-1.92c0,.43-.06.86-.07,1.29A3.46,3.46,0,0,0,14,12.24a18.7,18.7,0,0,1,.89,2.81c.06.23.08.47.13.7a.29.29,0,0,0,0,.09ZM9.9,14.84a2.19,2.19,0,0,0-2.52,0A3,3,0,0,0,9.9,14.84Z" transform="translate(0 -0.11)"/><path class="cls-1" d="M6.67.11l.67.1a1.42,1.42,0,0,1,.35.11c.11,0,.18.12.12.24-.13.33-.26.66-.4,1-.06.13-.13.25-.2.37l0,0L8,.57a.48.48,0,0,1,.17.59,12,12,0,0,1-.59,1.61,23.48,23.48,0,0,0-1,3C6.42,6.36,6.26,7,6.1,7.58a.07.07,0,0,0,0,.06c0-.12.09-.25.14-.37.27-.63.53-1.26.82-1.88q.68-1.5,1.38-3a5.69,5.69,0,0,1,.85-1.26.79.79,0,0,1,1-.23,2.36,2.36,0,0,1,.84.55.88.88,0,0,1,.27.51.57.57,0,0,1,0,.26c-.41,1.26-.72,2.55-1,3.84a3.86,3.86,0,0,0-.12.59l.06-.13a27.89,27.89,0,0,1,2.32-4.26.37.37,0,0,1,.37-.19,2,2,0,0,1,1.58,1,.53.53,0,0,1,0,.49,20.59,20.59,0,0,0-.84,3.55c0,.29-.1.59-.14.88l-2.13-.23a17.83,17.83,0,0,1,.71-2.59c-.13.22-.28.43-.39.66-.3.6-.6,1.21-.88,1.83-.06.11-.11.17-.25.13a23.89,23.89,0,0,1,1.74-3.42l0,0a2.26,2.26,0,0,0-.2.26c-.24.41-.49.82-.7,1.25-.3.61-.57,1.24-.84,1.87a.21.21,0,0,1-.16.13,8.84,8.84,0,0,0-.88.25,2.52,2.52,0,0,1-1.89,0c.1-.5.19-1,.31-1.51s.25-1,.38-1.5h0L7.3,8,6.8,7.9a31.35,31.35,0,0,1,2-4.39A10.41,10.41,0,0,0,7.56,5.6a11.58,11.58,0,0,0-.85,2.28H6.54L7,6.64l0,0c-.13.32-.25.63-.37.94,0,.1,0,.22-.12.27s-.19,0-.29,0a9.09,9.09,0,0,0-1.73.1l-.2,0c.13-.64.25-1.27.39-1.89S4.91,4.82,5,4.19c-.11.38-.22.76-.31,1.15-.2.81-.39,1.63-.58,2.45,0,.2,0,.2-.29.21,0,0,0-.1,0-.14.22-1,.44-2,.65-3a19.88,19.88,0,0,1,.77-2.74c.11-.29.25-.58.39-.89l-.14.08A7.57,7.57,0,0,0,3.87,3,9.79,9.79,0,0,0,2.3,6,2.85,2.85,0,0,0,2.16,7.3a1,1,0,0,0,.23.53.13.13,0,0,1,0,.13s-.1.11-.14.1C2,8,1.7,8,1.42,7.92a2.58,2.58,0,0,1-1-.52A1.13,1.13,0,0,1,0,6.71l0-.07V6.12a.05.05,0,0,0,0,0,7.87,7.87,0,0,1,.32-1A10.65,10.65,0,0,1,3.43,1.28a6.16,6.16,0,0,1,1.78-1L5.86.11ZM.7,7.18a2.39,2.39,0,0,1-.19-1c0-.36.06-.72.09-1.06A3.58,3.58,0,0,0,.37,6.53.9.9,0,0,0,.7,7.18Z" transform="translate(0 -0.11)"/><path class="cls-1" d="M5.81,8a5.93,5.93,0,0,1,2,.33,2.73,2.73,0,0,0,1.87,0,6.66,6.66,0,0,1,3.1-.24l.89.13c.21,0,.25.07.24.28s0,.44,0,.66v0a12.72,12.72,0,0,0-.5,1.7,1,1,0,0,1-.84.76,3,3,0,0,1-.32.06,5.23,5.23,0,0,1-1.53,0,1.37,1.37,0,0,1-1.11-.92c-.14-.35-.26-.71-.39-1.07a.41.41,0,0,0-.45-.32.37.37,0,0,0-.38.27c-.11.28-.21.56-.32.85,0,.14-.1.28-.16.42a1.31,1.31,0,0,1-1.06.77,5.63,5.63,0,0,1-1.83-.06,1.09,1.09,0,0,1-.88-.84c-.11-.38-.19-.77-.29-1.16a.9.9,0,0,0-.08-.23,1.74,1.74,0,0,1-.14-1c0-.09.07-.13.16-.15.29,0,.59-.09.89-.12Zm5.68,3.53.93-.14a.72.72,0,0,0,.56-.48,3.88,3.88,0,0,0,.28-1.35c0-.69-.12-.87-.8-1a5.64,5.64,0,0,0-1.69-.06,3.1,3.1,0,0,0-1,.28.37.37,0,0,0-.26.35A3.78,3.78,0,0,0,10,10.91a.94.94,0,0,0,.7.52ZM6,8.47a3.8,3.8,0,0,0-1.38.21.59.59,0,0,0-.41.54,4,4,0,0,0,.22,1.6.82.82,0,0,0,.63.59,4.28,4.28,0,0,0,1.47.07,1.25,1.25,0,0,0,1.14-.91,4.72,4.72,0,0,0,.27-1.28.46.46,0,0,0-.35-.56A4.12,4.12,0,0,0,6,8.47Z" transform="translate(0 -0.11)"/></svg>