<svg id="Layer_1" data-name="Layer 1" xmlns="http://www.w3.org/2000/svg" viewBox="0 0 22.03 39.87"><defs><style>.cls-1{fill:#fff;}</style></defs><title>Logic</title><path class="cls-1" d="M22,24.15c0,.21-.07.43-.11.65a.36.36,0,0,1-.08.18l-.22-1h-.06c0,.12,0,.23,0,.35,0,.55,0,1.1,0,1.66a5.23,5.23,0,0,1-.63,2.54,6,6,0,0,1-.39.7L20.67,28h0c-.11.25-.2.5-.32.75s-.38.73-.6,1.08a7.64,7.64,0,0,0-1,2.93c0,.2-.07.4-.11.6a.6.6,0,0,1-.09.15.91.91,0,0,1-.07-.14l-.16-.69c-.08.39-.13.74-.23,1.08a5.83,5.83,0,0,1-.41,1,6,6,0,0,1-.62.87,8,8,0,0,1-.75.79,3.36,3.36,0,0,0-.06-1.54,9.84,9.84,0,0,1-1.63,3.29l-.08,0c0-.11,0-.22,0-.33.11-.62.23-1.24.34-1.86a1.37,1.37,0,0,0,0-.29h-.06a6.65,6.65,0,0,0-.27.61c-.21.57-.41,1.14-.62,1.7a3.81,3.81,0,0,1-.23.45l-.07,0V37.08h-.07L12.65,40c-.15-.75-.26-1.48-.46-2.18s-.5-1.37-.75-2.06h-.07l-.26,2.52H11a7.15,7.15,0,0,0-1.59-2.7l.26.84,0,0L9.13,36c-.43-.4-.86-.79-1.28-1.2a3.07,3.07,0,0,1-.89-2c0-.17,0-.35-.06-.58-.14.3-.1.6-.24.83H6.59c-.07-.3-.14-.6-.2-.9l-.21-1a5.41,5.41,0,0,0-.64-1.69c-.23-.42-.41-.88-.61-1.32A.32.32,0,0,0,4.81,28l.12,1.33a5.7,5.7,0,0,1-1-3.17c0-.65,0-1.3,0-1.95a1,1,0,0,0,0-.16H3.87l-.24.92h0a5.12,5.12,0,0,1-.1-.54,6.35,6.35,0,0,1,.36-2.73c.09-.27.14-.57.23-.84.2-.6.42-1.2.63-1.8a7.46,7.46,0,0,0,.49-1.42,18.62,18.62,0,0,0,.09-2.11c0-.33,0-.66,0-1,.16.49.3,1,.49,1.51.11.3.29.57.43.87a.22.22,0,0,1,0,.21.85.85,0,0,0-.14.94,10.44,10.44,0,0,0,.86,2.3A1,1,0,0,0,8,20.92a1.63,1.63,0,0,0,1-.48l1-1a1.68,1.68,0,0,1,1.72-.49,4.37,4.37,0,0,0,.79.14,4.4,4.4,0,0,0,.8-.07l.69-.12a1.17,1.17,0,0,1,1,.28c.43.38.85.76,1.23,1.17a1.79,1.79,0,0,0,1.74.55.83.83,0,0,0,.57-.5,3.29,3.29,0,0,1,.34-.61,6.19,6.19,0,0,0,.77-2.17.27.27,0,0,0-.06-.16c-.09-.13-.19-.24-.3-.39a5.14,5.14,0,0,0,1-2.81c0,.63-.09,1.26-.1,1.88a4.7,4.7,0,0,0,.31,1.81,28.66,28.66,0,0,1,1.3,4.13c.08.34.12.69.18,1,0,0,0,.09,0,.13Zm-7.49-2.39a3.23,3.23,0,0,0-3.7,0A4.43,4.43,0,0,0,14.54,21.76Z" transform="translate(0 -0.13)"/><path class="cls-1" d="M9.79.13c.33,0,.67.09,1,.15a3.28,3.28,0,0,1,.51.15.26.26,0,0,1,.18.36c-.2.48-.39,1-.6,1.44a5.77,5.77,0,0,1-.29.55l.06,0,1-2a.71.71,0,0,1,.26.87A20.26,20.26,0,0,1,11.08,4a32.19,32.19,0,0,0-1.4,4.37c-.25.9-.48,1.8-.72,2.7a.07.07,0,0,0,0,.08c.07-.18.13-.37.21-.55.4-.92.79-1.85,1.2-2.76.67-1.46,1.34-2.91,2-4.36a7.67,7.67,0,0,1,1.25-1.84,1.16,1.16,0,0,1,1.53-.35,3.58,3.58,0,0,1,1.24.82,1.35,1.35,0,0,1,.4.74,1,1,0,0,1,0,.38c-.6,1.85-1.06,3.74-1.49,5.64-.06.29-.13.57-.17.87l.09-.18a41.31,41.31,0,0,1,3.41-6.27.52.52,0,0,1,.54-.27,2.92,2.92,0,0,1,2.32,1.45.77.77,0,0,1,0,.71,28.3,28.3,0,0,0-1.23,5.22c-.08.43-.15.87-.22,1.3L17,11.4a26.62,26.62,0,0,1,1-3.81c-.19.33-.41.64-.58,1-.44.89-.87,1.78-1.29,2.68-.08.17-.16.26-.36.2a34.86,34.86,0,0,1,2.56-5l-.07,0a2.48,2.48,0,0,0-.29.37c-.35.61-.72,1.21-1,1.84-.44.9-.83,1.83-1.24,2.74a.28.28,0,0,1-.23.19c-.43.12-.87.23-1.29.37a3.73,3.73,0,0,1-2.77,0c.14-.74.28-1.49.45-2.23s.37-1.46.56-2.19l-.06,0-1.7,4.26L10,11.57a47.59,47.59,0,0,1,2.86-6.44A15.84,15.84,0,0,0,11.1,8.2a16.42,16.42,0,0,0-1.24,3.35l-.25,0,.66-1.8,0,0c-.18.46-.36.92-.55,1.38-.05.14-.07.32-.17.39s-.28,0-.42,0a12.84,12.84,0,0,0-2.55.14l-.29,0c.19-.94.37-1.86.57-2.78s.4-1.83.58-2.76c-.16.56-.33,1.12-.46,1.69-.3,1.2-.57,2.4-.85,3.6-.07.3-.07.3-.43.32a1.46,1.46,0,0,1,0-.22c.32-1.49.65-3,1-4.46A26.3,26.3,0,0,1,7.77,3c.17-.44.37-.85.57-1.32l-.2.13A11.1,11.1,0,0,0,5.68,4.36,14.28,14.28,0,0,0,3.39,8.73a4.22,4.22,0,0,0-.22,2,1.46,1.46,0,0,0,.34.77.26.26,0,0,1,0,.21c0,.06-.14.15-.21.14-.41-.06-.83-.11-1.24-.21a3.92,3.92,0,0,1-1.44-.76,1.65,1.65,0,0,1-.61-1l0-.1V9s0,0,0-.06A13.29,13.29,0,0,1,.5,7.47,15.57,15.57,0,0,1,5,1.86,8.58,8.58,0,0,1,7.65.37c.31-.1.64-.16,1-.24ZM1,10.51A3.4,3.4,0,0,1,.75,9c0-.53.09-1.05.13-1.56A5.32,5.32,0,0,0,.54,9.55,1.28,1.28,0,0,0,1,10.51Z" transform="translate(0 -0.13)"/><path class="cls-1" d="M8.54,11.75a8.73,8.73,0,0,1,2.87.48,4.06,4.06,0,0,0,2.75,0,9.76,9.76,0,0,1,4.55-.36l1.3.18c.32,0,.38.11.37.43s-.05.64-.07,1a0,0,0,0,1,0,0A20,20,0,0,0,19.58,16a1.54,1.54,0,0,1-1.23,1.11,3.89,3.89,0,0,1-.47.09,8.08,8.08,0,0,1-2.25,0A2,2,0,0,1,14,15.85c-.21-.51-.38-1-.57-1.55a.61.61,0,0,0-.67-.48.56.56,0,0,0-.56.39c-.16.41-.3.83-.46,1.25-.08.21-.15.42-.25.62a1.91,1.91,0,0,1-1.55,1.13,8,8,0,0,1-2.68-.08A1.6,1.6,0,0,1,6,15.89c-.16-.56-.28-1.13-.43-1.7a1.25,1.25,0,0,0-.12-.34,2.63,2.63,0,0,1-.21-1.54c0-.14.11-.2.23-.22.44-.06.87-.13,1.31-.18Zm8.33,5.18,1.37-.21a1,1,0,0,0,.82-.69,5.66,5.66,0,0,0,.41-2c0-1-.17-1.28-1.17-1.5a8,8,0,0,0-2.49-.08,4.34,4.34,0,0,0-1.46.4.57.57,0,0,0-.39.53,5.63,5.63,0,0,0,.65,2.6,1.38,1.38,0,0,0,1,.77ZM8.76,12.41a5.54,5.54,0,0,0-2,.3.87.87,0,0,0-.6.81,6.08,6.08,0,0,0,.32,2.35,1.22,1.22,0,0,0,.93.86,6.52,6.52,0,0,0,2.16.1,1.85,1.85,0,0,0,1.67-1.34,6.71,6.71,0,0,0,.4-1.88.68.68,0,0,0-.52-.82A6,6,0,0,0,8.76,12.41Z" transform="translate(0 -0.13)"/></svg>