<svg id="Layer_1" data-name="Layer 1" xmlns="http://www.w3.org/2000/svg" viewBox="0 0 197.83 149.71"><defs><style>.cls-1{fill:#7e829c;}</style></defs><title>montekarlo</title><path class="cls-1" d="M111.44,114.43c4.61,4.35,11.32,1.75,16.52-2.69,3.29-2.82,6.4-6.13,9.56-9.27,8.3-8.25,14-8.29,22.26,0C171,113.59,182.9,122.62,196,127.71c.88.34,1.77.56,2.65.84-11-9.63-19.94-22.76-29.14-35.43-7.22-10-15.5-15.55-25.4-14.25-3.75.49-7.43,2.2-11.12,3.45a62.59,62.59,0,0,0-7,2.7c-3.83,1.82-6.89-.13-9.25-4.39-3.19-5.76-6.09-11.88-9.13-17.82-4-7.9-8-15.85-12.17-23.62a24.6,24.6,0,0,0-3.93-5c-5.16-5.61-10.82-6.5-15.94-.92A187.48,187.48,0,0,0,58,55.4C48.73,69.15,40.12,83.86,31,97.76,23.56,109,15.64,119.47,5.83,126c-1.4.94-2.85,1.7-5,3,8,.27,15.39-1.77,21.33-7,14.3-12.48,50.5-56.71,50.5-56.71,5.68-5.54,10-4.59,14.58,2.71,0,0,14.7,37.4,24.2,46.39" transform="translate(-0.83 -29.5)"/><polygon class="cls-1" points="9.19 127.15 9.19 110.08 9.22 110.08 17.97 122.5 16.94 122.3 25.67 110.08 25.72 110.08 25.72 127.15 23.35 127.15 23.35 115.48 23.48 116.69 17.38 125.37 17.33 125.37 11.09 116.69 11.5 115.57 11.5 127.15 9.19 127.15"/><path class="cls-1" d="M32.47,148.4a8.09,8.09,0,0,1,.66-3.24,8.38,8.38,0,0,1,1.81-2.7,8.67,8.67,0,0,1,2.69-1.85,8.08,8.08,0,0,1,3.25-.67,8.17,8.17,0,0,1,3.27.67,8.92,8.92,0,0,1,2.72,1.85,8.6,8.6,0,0,1,1.83,2.7,8.09,8.09,0,0,1,.66,3.24,8.18,8.18,0,0,1-.66,3.28,8.49,8.49,0,0,1-4.55,4.5,8.33,8.33,0,0,1-3.27.65,8.24,8.24,0,0,1-3.25-.65,8.5,8.5,0,0,1-2.69-1.79,8,8,0,0,1-1.81-2.68,8.29,8.29,0,0,1-.66-3.31m2.47,0a6.09,6.09,0,0,0,.79,3.08,6.21,6.21,0,0,0,2.17,2.21,5.88,5.88,0,0,0,3.05.82,5.74,5.74,0,0,0,3-.82,6.24,6.24,0,0,0,2.15-2.21,6.29,6.29,0,0,0-2.18-8.44,5.8,5.8,0,0,0-3-.82,5.69,5.69,0,0,0-3,.84,6,6,0,0,0-2.14,2.23,6.27,6.27,0,0,0-.78,3.11" transform="translate(-0.83 -29.5)"/><polygon class="cls-1" points="68.84 127.72 56.1 115 56.8 115.23 56.85 127.15 54.46 127.15 54.46 110.1 54.55 110.1 67.13 122.82 66.58 122.68 66.53 110.63 68.9 110.63 68.9 127.72 68.84 127.72"/><polygon class="cls-1" points="74.67 110.63 85.68 110.63 85.68 112.93 81.3 112.93 81.3 127.15 78.91 127.15 78.91 112.93 74.67 112.93 74.67 110.63"/><polygon class="cls-1" points="91.42 110.63 102.25 110.63 102.25 112.93 93.79 112.93 93.79 117.69 101.33 117.69 101.33 119.99 93.79 119.99 93.79 124.85 102.57 124.85 102.57 127.15 91.42 127.15 91.42 110.63"/><polygon class="cls-1" points="111.04 117.15 110.98 117.97 111.3 117.51 117.81 110.63 120.91 110.63 114.07 117.78 121.23 127.15 118.2 127.15 112.32 119.29 111.02 120.54 111.04 127.15 108.63 127.15 108.63 110.63 111.04 110.63 111.04 117.15"/><path class="cls-1" d="M125.59,156.65l7.27-17.21H133l7.27,17.21h-2.76l-5.28-13.47,1.71-1.12-6,14.59Zm4.4-6.2h5.93l.82,2.05h-7.45Z" transform="translate(-0.83 -29.5)"/><path class="cls-1" d="M150,140.13a7.44,7.44,0,0,1,3.07.6,4.86,4.86,0,0,1,2.11,1.75,5,5,0,0,1,.77,2.84,6.49,6.49,0,0,1-.3,1.94,4.89,4.89,0,0,1-1,1.73,4.5,4.5,0,0,1-1.73,1.24,6.72,6.72,0,0,1-2.65.47h-2.44v6h-2.37V140.13Zm.27,8.27a3.35,3.35,0,0,0,2-.49,2.56,2.56,0,0,0,1-1.19,3.61,3.61,0,0,0,.27-1.31,3.22,3.22,0,0,0-.16-1,3,3,0,0,0-.51-1,2.52,2.52,0,0,0-.94-.75,3.37,3.37,0,0,0-1.46-.28h-2.53v6Zm2.78,1.41,4.29,6.84h-2.78l-4.36-6.79Z" transform="translate(-0.83 -29.5)"/><polygon class="cls-1" points="162.12 110.63 164.49 110.63 164.49 124.85 172.78 124.85 172.78 127.15 162.12 127.15 162.12 110.63"/><path class="cls-1" d="M178.13,148.4a8.08,8.08,0,0,1,.65-3.24,8.38,8.38,0,0,1,1.81-2.7,8.67,8.67,0,0,1,2.69-1.85,8.09,8.09,0,0,1,3.26-.67,8.25,8.25,0,0,1,3.27.67,8.88,8.88,0,0,1,2.71,1.85,8.6,8.6,0,0,1,1.83,2.7,8.09,8.09,0,0,1,.66,3.24,8.18,8.18,0,0,1-.66,3.28,8.52,8.52,0,0,1-4.54,4.5,8.41,8.41,0,0,1-3.27.65,8.25,8.25,0,0,1-3.26-.65,8.5,8.5,0,0,1-2.69-1.79,8,8,0,0,1-1.81-2.68,8.28,8.28,0,0,1-.65-3.31m2.46,0a6,6,0,0,0,.8,3.08,6.1,6.1,0,0,0,2.16,2.21,5.88,5.88,0,0,0,3,.82,5.71,5.71,0,0,0,3-.82,6.13,6.13,0,0,0,2.14-2.21,6.39,6.39,0,0,0,0-6.21,6.16,6.16,0,0,0-2.16-2.23,5.77,5.77,0,0,0-3-.82,5.65,5.65,0,0,0-3,.84,5.88,5.88,0,0,0-2.14,2.23,6.17,6.17,0,0,0-.79,3.11" transform="translate(-0.83 -29.5)"/><polygon class="cls-1" points="63.66 149.71 57.29 143.35 57.65 143.47 57.67 149.43 56.47 149.43 56.47 140.9 56.52 140.9 62.81 147.26 62.53 147.19 62.51 141.16 63.7 141.16 63.7 149.71 63.66 149.71"/><path class="cls-1" d="M71.72,178.92l3.63-8.6h.07l3.64,8.6H77.68L75,172.19l.86-.56-3,7.29Zm2.2-3.1h3l.41,1H73.57Z" transform="translate(-0.83 -29.5)"/><path class="cls-1" d="M93.43,178.92v-8.26h2.28a5.35,5.35,0,0,1,2.09.37A3.79,3.79,0,0,1,100,173.4a4.91,4.91,0,0,1,.25,1.5,4.08,4.08,0,0,1-.33,1.67,3.62,3.62,0,0,1-.9,1.27,3.92,3.92,0,0,1-1.31.8,4.37,4.37,0,0,1-1.57.28Zm1.18-1.15h1.28a3.51,3.51,0,0,0,1.59-.34,2.6,2.6,0,0,0,1.1-1,3,3,0,0,0,.41-1.61,3.23,3.23,0,0,0-.26-1.34,2.61,2.61,0,0,0-.68-.93,2.71,2.71,0,0,0-.94-.55,3.06,3.06,0,0,0-1.07-.19H94.61Z" transform="translate(-0.83 -29.5)"/><path class="cls-1" d="M110,170.66a3.74,3.74,0,0,1,1.54.3,2.48,2.48,0,0,1,1.06.88,2.55,2.55,0,0,1,.38,1.42,3.22,3.22,0,0,1-.15,1,2.58,2.58,0,0,1-.47.86,2.26,2.26,0,0,1-.87.62,3.26,3.26,0,0,1-1.33.24h-1.22v3h-1.18v-8.26Zm.14,4.14a1.74,1.74,0,0,0,1-.25,1.29,1.29,0,0,0,.48-.59,1.82,1.82,0,0,0,.14-.66,1.72,1.72,0,0,0-.08-.48,1.79,1.79,0,0,0-.26-.49,1.27,1.27,0,0,0-.47-.38,1.76,1.76,0,0,0-.73-.14h-1.27v3Zm1.39.71,2.14,3.41h-1.39l-2.17-3.39Z" transform="translate(-0.83 -29.5)"/><rect class="cls-1" x="120.17" y="141.16" width="1.19" height="8.26"/><polygon class="cls-1" points="136.59 149.71 130.22 143.35 130.57 143.47 130.6 149.43 129.4 149.43 129.4 140.9 129.45 140.9 135.74 147.26 135.46 147.19 135.44 141.16 136.62 141.16 136.62 149.71 136.59 149.71"/><rect class="cls-1" x="144.67" y="141.16" width="1.19" height="8.26"/></svg>