<svg id="Layer_1" data-name="Layer 1" xmlns="http://www.w3.org/2000/svg" viewBox="0 0 196.89 52.99"><defs><style>.cls-1{fill:#7e829c;}</style></defs><title>mrstefanbraun</title><path class="cls-1" d="M73.51,126.49h53v-53h-53Zm1.76-51.21h49.45v49.45H75.27Z" transform="translate(-1.55 -73.51)"/><polygon class="cls-1" points="79.9 7.96 79.9 45.04 79.9 45.04 79.9 45.05 116.98 45.05 116.98 7.96 116.98 7.96 79.9 7.96"/><path class="cls-1" d="M18.05,122.39H60.26V80.17H18.05Zm1.41-40.81h39.4V121H19.46Z" transform="translate(-1.55 -73.51)"/><polygon class="cls-1" points="22.83 13.01 22.83 13.01 22.83 13.01 22.83 13.01 22.83 42.55 22.83 42.55 22.83 42.55 22.83 42.55 52.37 42.55 52.37 13.01 52.38 13.01 52.37 13.01 22.83 13.01"/><path class="cls-1" d="M139.74,122.39H182V80.17H139.74Zm1.4-40.81h39.4V121h-39.4Z" transform="translate(-1.55 -73.51)"/><polygon class="cls-1" points="174.06 13.01 174.06 13.01 174.06 13.01 144.51 13.01 144.51 13.01 144.51 13.01 144.51 13.01 144.51 42.55 144.51 42.55 144.51 42.55 144.51 42.55 174.06 42.55 174.06 42.55 174.06 13.01 174.06 13.01 174.06 13.01 174.06 13.01"/><rect class="cls-1" y="24.21" width="4.56" height="4.56"/><rect class="cls-1" x="192.33" y="24.21" width="4.56" height="4.56"/></svg>