<svg id="Layer_1" data-name="Layer 1" xmlns="http://www.w3.org/2000/svg" viewBox="0 0 199.72 175.31"><defs><style>.cls-1{fill:#7e829c;}</style></defs><title>robroy</title><path class="cls-1" d="M200,79.44v1.92H.32V79.5H14.77c.61-2.18,1.12-4.29,1.8-6.35a78.5,78.5,0,0,1,6.79-15.66c1.55-2.6,3.05-5.24,4.76-7.73s3.4-4.6,5.24-6.79A56.07,56.07,0,0,1,39,36.82c3.62-3.2,7.36-6.28,11.23-9.16,4.93-3.67,10.47-6.31,16.05-8.88a77,77,0,0,1,13.16-4.4,58.68,58.68,0,0,1,12.73-2c2.56-.08,5.09-.6,7.64-.66a49.75,49.75,0,0,1,6.33.44c2.15.22,4.29.47,6.42.8a50.34,50.34,0,0,1,6.72,1.24A152,152,0,0,1,135,19.28a85,85,0,0,1,11.88,6.64,71.11,71.11,0,0,1,9.43,6.65,121.45,121.45,0,0,1,10.18,10.24,60.57,60.57,0,0,1,6.38,8.34,106.53,106.53,0,0,1,6.82,12.44,105.65,105.65,0,0,1,5.14,14.14c.51,1.75,1.21,1.74,2.49,1.73,4.19,0,8.38,0,12.68,0M18.77,79.36a4.57,4.57,0,0,0,.62.08c6.39,0,12.78,0,19.17,0,.84,0,1.06-.44,1.26-1.06A65.6,65.6,0,0,1,46.9,63.49a55.89,55.89,0,0,1,9.43-11.24,95.28,95.28,0,0,1,8.77-7A54.22,54.22,0,0,1,78.66,38.4a59.69,59.69,0,0,1,20.19-3.59,79.77,79.77,0,0,1,11.05.67A87.21,87.21,0,0,1,120.12,38a54.53,54.53,0,0,1,16.74,8.44,60,60,0,0,1,11.23,10.24,57,57,0,0,1,8.59,13c1.31,2.86,2.5,5.79,3.68,8.72a1.41,1.41,0,0,0,1.57,1c6.12,0,12.25,0,18.37,0,.37,0,.75-.06,1.14-.1A83.85,83.85,0,0,0,152,33.76a82.65,82.65,0,0,0-55.11-17.9c-41.46,1.33-71.5,32.83-78.1,63.5m29.23,0H152.22A55.24,55.24,0,0,0,96.77,42.76C70.55,44.24,53.05,63.11,48,79.35" transform="translate(-0.28 -11.68)"/><path class="cls-1" d="M139.54,32.74c.43-1.19,1-.64,1.58-.28a77.56,77.56,0,0,1,33,42.91c.09.3.15.6.23.91-1.09.62-1.17-.24-1.37-.89a75.17,75.17,0,0,0-9.67-20,77.24,77.24,0,0,0-22.78-22c-.3-.18-.6-.38-1-.62" transform="translate(-0.28 -11.68)"/><path class="cls-1" d="M60.53,32.58c-3.28,2.48-6.61,4.76-9.67,7.34A75.33,75.33,0,0,0,27.33,75.23c-.37,1.16-.36,1.16-1.5,1.17.32-1,.6-2,.92-2.91A77.18,77.18,0,0,1,59,32.52c.93-.59.94-.58,1.5.06" transform="translate(-0.28 -11.68)"/><path class="cls-1" d="M62.43,35.11A74.25,74.25,0,0,0,47.75,46.72,72.7,72.7,0,0,0,30.33,75.44c-.22.68-.35,1.36-1.6.83C30,73,31.2,69.7,32.68,66.54A73.75,73.75,0,0,1,60.84,34.81c.6-.38,1.23-1,1.59.3" transform="translate(-0.28 -11.68)"/><path class="cls-1" d="M137.81,35.2c.34-1.22.93-.63,1.48-.29A74.36,74.36,0,0,1,170.91,75.8c.05.16.09.34.14.53-.79.4-1.11.06-1.35-.67-5.64-17.25-16.28-30.58-31.61-40.22a2,2,0,0,1-.28-.24" transform="translate(-0.28 -11.68)"/><path class="cls-1" d="M64.26,37.39a71.77,71.77,0,0,0-14,10.87,69.62,69.62,0,0,0-16.85,27c-.21.63-.26,1.54-1.6,1,1-2.58,1.93-5.21,3.08-7.73A71,71,0,0,1,62.67,37.09c.54-.34,1.14-1,1.59.3" transform="translate(-0.28 -11.68)"/><path class="cls-1" d="M136.13,37.4l.43-.64a71.64,71.64,0,0,1,31.23,39.58c-1.19.5-1.29-.33-1.52-1A68.1,68.1,0,0,0,147.09,46.1c-3.43-3.09-7.24-5.77-11-8.7" transform="translate(-0.28 -11.68)"/><path class="cls-1" d="M66.45,40.21a68.22,68.22,0,0,0-12.68,9.6,66.36,66.36,0,0,0-16.62,25.6c-.39,1.07-.4,1.07-1.5,1A68,68,0,0,1,64.84,39.9c.61-.36,1.24-.93,1.61.31" transform="translate(-0.28 -11.68)"/><path class="cls-1" d="M164.3,76.35c-1,.44-1.19-.14-1.44-.84a64.66,64.66,0,0,0-18-26.88c-3.35-3-7.06-5.59-10.65-8.39.34-.68.34-.69,1.37-.06a67.75,67.75,0,0,1,18,16.12,66.43,66.43,0,0,1,10.34,18.81c.14.42.28.83.41,1.24" transform="translate(-0.28 -11.68)"/><path class="cls-1" d="M10.19,101.91v8.49a1.29,1.29,0,0,0,.27.87,1.84,1.84,0,0,0,.93.47v.6h-8v-.6a1.91,1.91,0,0,0,.94-.48,1.3,1.3,0,0,0,.26-.86V88.75a1.32,1.32,0,0,0-.26-.88,1.91,1.91,0,0,0-.94-.49v-.6h16a24.65,24.65,0,0,1,4.64.34,8.22,8.22,0,0,1,3,1.18,6,6,0,0,1,2.21,2.64,8.63,8.63,0,0,1,.69,3.44q0,6.25-6.95,7.33l5,7.06a16.44,16.44,0,0,0,1.92,2.38,2.36,2.36,0,0,0,1.49.59v.6H22.12v-.6c.63-.1.95-.32.95-.67a4.75,4.75,0,0,0-.88-1.63L17,101.91Zm0-4.21H18.8a23.09,23.09,0,0,0,2.7-.11,4.21,4.21,0,0,0,1.44-.47,3.41,3.41,0,0,0,0-5.55,4,4,0,0,0-1.43-.47A22.93,22.93,0,0,0,18.8,91H10.19Z" transform="translate(-0.28 -11.68)"/><path class="cls-1" d="M48,86.33q6.69,0,10.61,3.62a13.28,13.28,0,0,1,2.15,16.63q-3.87,6.21-12.72,6.21-6.63,0-10.55-3.61a12.69,12.69,0,0,1-3.19-4.63,13.39,13.39,0,0,1-.95-5,13.09,13.09,0,0,1,2-7q3.78-6.09,12.69-6.2m0,4.35a8.79,8.79,0,0,0-6.09,2.17,9.25,9.25,0,0,0,0,13.43,8.89,8.89,0,0,0,6.13,2.17,8.83,8.83,0,0,0,6.11-2.17,8.56,8.56,0,0,0,2.21-3.16,9.11,9.11,0,0,0,.68-3.45,8.53,8.53,0,0,0-2.89-6.82A9.14,9.14,0,0,0,48,90.68" transform="translate(-0.28 -11.68)"/><path class="cls-1" d="M89.52,99a6,6,0,0,1,4.31,6,6.61,6.61,0,0,1-2.51,5.49,8.11,8.11,0,0,1-2.95,1.43,16.33,16.33,0,0,1-4.15.44H66.75v-.6a1.83,1.83,0,0,0,.93-.48,1.29,1.29,0,0,0,.27-.88V88.75a1.27,1.27,0,0,0-.27-.88,1.83,1.83,0,0,0-.93-.49v-.6h17.3a17.91,17.91,0,0,1,4,.37,6.93,6.93,0,0,1,2.66,1.28A6.12,6.12,0,0,1,93,93.56,5.57,5.57,0,0,1,89.52,99m-16-2h9.79a5.39,5.39,0,0,0,3.11-.66,2.72,2.72,0,0,0,1-2.32,2.65,2.65,0,0,0-.93-2.29A5.51,5.51,0,0,0,83.32,91H73.53Zm0,11.18H83a7.39,7.39,0,0,0,3.8-.73,3,3,0,0,0,1.33-2.75,3.05,3.05,0,0,0-1.33-2.76,7.44,7.44,0,0,0-3.8-.73H73.53Z" transform="translate(-0.28 -11.68)"/><path class="cls-1" d="M114,101.91v8.49a1.25,1.25,0,0,0,.28.87,1.8,1.8,0,0,0,.92.47v.6h-8v-.6a1.87,1.87,0,0,0,.94-.48,1.25,1.25,0,0,0,.26-.86V88.75a1.27,1.27,0,0,0-.26-.88,1.87,1.87,0,0,0-.94-.49v-.6h16a24.61,24.61,0,0,1,4.63.34,8.22,8.22,0,0,1,3,1.18,6,6,0,0,1,2.21,2.64,8.63,8.63,0,0,1,.69,3.44q0,6.25-7,7.33l5,7.06a15.15,15.15,0,0,0,1.92,2.38,2.34,2.34,0,0,0,1.49.59v.6H126v-.6c.64-.1,1-.32,1-.67a4.75,4.75,0,0,0-.88-1.63l-5.17-7.53Zm0-4.21h8.62a23.33,23.33,0,0,0,2.7-.11,4.36,4.36,0,0,0,1.44-.47,3.42,3.42,0,0,0,0-5.55,4.07,4.07,0,0,0-1.44-.47,22.61,22.61,0,0,0-2.7-.11H114Z" transform="translate(-0.28 -11.68)"/><path class="cls-1" d="M151.83,86.33q6.69,0,10.61,3.62a12.63,12.63,0,0,1,4.14,9.77,12.78,12.78,0,0,1-2,6.86q-3.89,6.21-12.73,6.21-6.63,0-10.55-3.61a12.54,12.54,0,0,1-3.18-4.63,13.5,13.5,0,0,1,1-12q3.76-6.09,12.68-6.2m0,4.35a8.81,8.81,0,0,0-6.09,2.17,9.25,9.25,0,0,0,0,13.43,9.72,9.72,0,0,0,12.24,0,8.56,8.56,0,0,0,2.21-3.16,9.11,9.11,0,0,0,.68-3.45A8.5,8.5,0,0,0,158,92.85a9.12,9.12,0,0,0-6.15-2.17" transform="translate(-0.28 -11.68)"/><path class="cls-1" d="M183,101.64v8.74a1.29,1.29,0,0,0,.27.88,1.92,1.92,0,0,0,.93.48v.6h-8v-.6a2,2,0,0,0,1-.48,1.24,1.24,0,0,0,.28-.88v-8.74L169.11,90a11.41,11.41,0,0,0-1.68-2,2.66,2.66,0,0,0-1.45-.63v-.6h10.1v.6c-.84.14-1.26.52-1.26,1.16a4.14,4.14,0,0,0,.77,1.48l4.61,6.84L184.94,90a3.67,3.67,0,0,0,.76-1.5,1,1,0,0,0-.33-.74,1.77,1.77,0,0,0-.92-.4v-.6h9.89v.6a2.63,2.63,0,0,0-1.45.63,11.41,11.41,0,0,0-1.68,2Z" transform="translate(-0.28 -11.68)"/><path class="cls-1" d="M77,30.15l.37,1.36,3.53-1a.32.32,0,0,0,.22-.13.53.53,0,0,0,.06-.28l.14,0,.45,1.64-.14,0a.45.45,0,0,0-.2-.21.35.35,0,0,0-.25,0L76,33l0-.14a.56.56,0,0,0,.21-.19.38.38,0,0,0,0-.26l-1.23-4.55a.34.34,0,0,0-.13-.22.53.53,0,0,0-.28-.06l0-.14,5-1.36a.4.4,0,0,0,.22-.14.51.51,0,0,0,.06-.28l.14,0,.44,1.65-.13,0a.51.51,0,0,0-.2-.21.38.38,0,0,0-.26,0L76.39,28l.33,1.22,2.1-.56a.44.44,0,0,0,.22-.14.51.51,0,0,0,.06-.28l.14,0,.43,1.61-.13,0a.51.51,0,0,0-.2-.21.44.44,0,0,0-.26,0Z" transform="translate(-0.28 -11.68)"/><path class="cls-1" d="M86.89,25.13l-.44,1.44-.14,0a.34.34,0,0,0-.15-.24,2.27,2.27,0,0,0-.93-.28,4.18,4.18,0,0,0-1.17,0,2.58,2.58,0,0,0-.85.3c-.34.2-.48.42-.44.67a.36.36,0,0,0,.33.3,4.17,4.17,0,0,0,1.05,0l.81-.08a3.86,3.86,0,0,1,1.67.12,1.52,1.52,0,0,1,.59.39,1.63,1.63,0,0,1-.13,2.32,3.8,3.8,0,0,1-1.93.85,6.09,6.09,0,0,1-2.58-.1h-.14a.29.29,0,0,0-.17.16l-.13,0,.33-1.49.14,0v0a.35.35,0,0,0,.14.2,2.38,2.38,0,0,0,1,.23A5.23,5.23,0,0,0,85,29.87a3.15,3.15,0,0,0,.94-.31q.5-.27.42-.66c0-.2-.18-.32-.44-.36a4,4,0,0,0-.9,0l-.81.08a6.29,6.29,0,0,1-1,0,1.82,1.82,0,0,1-.64-.13,1.44,1.44,0,0,1-.61-.46,1.67,1.67,0,0,1-.32-.73,1.6,1.6,0,0,1,.55-1.57A3.47,3.47,0,0,1,83.87,25,4.73,4.73,0,0,1,85,25a7.94,7.94,0,0,1,1.28.24.84.84,0,0,0,.31,0,.38.38,0,0,0,.19-.15Z" transform="translate(-0.28 -11.68)"/><path class="cls-1" d="M91.43,25.17l.41,4.17a.33.33,0,0,0,.1.23.57.57,0,0,0,.27.12v.14l-2,.2v-.14a.46.46,0,0,0,.24-.16.39.39,0,0,0,0-.25l-.41-4.18-1.69.17a.34.34,0,0,0-.24.1.42.42,0,0,0-.11.26l-.14,0-.17-1.7h.14a.45.45,0,0,0,.15.24.41.41,0,0,0,.26.05L93,24a.34.34,0,0,0,.24-.1.49.49,0,0,0,.11-.27h.14l.17,1.7h-.14a.52.52,0,0,0-.16-.24.35.35,0,0,0-.26-.05Z" transform="translate(-0.28 -11.68)"/><path class="cls-1" d="M98.91,28.28l4.3.08a.36.36,0,0,0,.24-.07.57.57,0,0,0,.14-.25h.16l0,1.93h-.16a.57.57,0,0,0-.13-.26.33.33,0,0,0-.24-.07l-5.47-.11a.66.66,0,0,0-.36.05.42.42,0,0,0-.14.27H97a2.21,2.21,0,0,1,0-.32,3.08,3.08,0,0,1,.17-1.09A3,3,0,0,1,98.38,27a9.55,9.55,0,0,1,1.41-.73l.87-.37a2.85,2.85,0,0,0,.9-.57,1,1,0,0,0,.28-.71.84.84,0,0,0-.3-.72,1.56,1.56,0,0,0-.93-.26,2.72,2.72,0,0,0-1.4.34c-.42.22-.63.46-.64.71a1.54,1.54,0,0,0,.08.32l-.12.12L97.19,23.6l.13-.11a.66.66,0,0,0,.29.1.32.32,0,0,0,.14,0l.26-.2a4.1,4.1,0,0,1,2.81-.93,2.89,2.89,0,0,1,1.9.62,2,2,0,0,1,.69,1.61,2.09,2.09,0,0,1-.72,1.6,4.85,4.85,0,0,1-1.25.74l-.8.34-.56.22a5,5,0,0,0-.76.34,1.33,1.33,0,0,0-.41.38" transform="translate(-0.28 -11.68)"/><path class="cls-1" d="M108.52,23a3.17,3.17,0,0,1,2.19,1.16,3.77,3.77,0,0,1,.7,2.89,4.56,4.56,0,0,1-.28,1.1,3.86,3.86,0,0,1-.54.94,3,3,0,0,1-1.36,1,3.28,3.28,0,0,1-1.54.17A3.16,3.16,0,0,1,105.51,29,3.27,3.27,0,0,1,105,28a4.35,4.35,0,0,1-.15-1.77,4,4,0,0,1,.83-2.09,2.94,2.94,0,0,1,1.35-1,3.36,3.36,0,0,1,1.54-.17m-.14,1.19a1.49,1.49,0,0,0-1.37.57,2.9,2.9,0,0,0-.64,1.61,3,3,0,0,0,.25,1.71,1.49,1.49,0,0,0,1.22.87,1.46,1.46,0,0,0,1.38-.57,2.9,2.9,0,0,0,.64-1.58,3,3,0,0,0-.25-1.74,1.54,1.54,0,0,0-1.23-.87" transform="translate(-0.28 -11.68)"/><path class="cls-1" d="M113.5,26.38l.37-1.83.16,0a1.11,1.11,0,0,0,.06.26.2.2,0,0,0,.15.09h.14l.46,0,.06-.3a.35.35,0,0,0,0-.25.53.53,0,0,0-.22-.18l0-.16,2.11.43,0,.16a.6.6,0,0,0-.28.07.42.42,0,0,0-.11.22l-1.18,5.84a.35.35,0,0,0,0,.25.57.57,0,0,0,.23.18l0,.16-2.1-.42,0-.17a.43.43,0,0,0,.28-.08.31.31,0,0,0,.12-.22l.88-4.36-.5,0a.58.58,0,0,0-.26.07.65.65,0,0,0-.18.23Z" transform="translate(-0.28 -11.68)"/><path class="cls-1" d="M123.46,27.42l-4.21-1.23a.36.36,0,0,0-.25,0,.58.58,0,0,0-.2.21l-.16,0,.51-1.75.16.05a.57.57,0,0,0,.06.29.36.36,0,0,0,.21.13l5.34,1.56a.35.35,0,0,0,.25,0,.45.45,0,0,0,.2-.21l.16,0-.37,1.29-4.5,4.12c-.17.15-.27.26-.28.32s0,.2.2.32l0,.16L118.12,32l0-.15a.84.84,0,0,0,.4-.09,2.59,2.59,0,0,0,.46-.33Z" transform="translate(-0.28 -11.68)"/><path class="cls-1" d="M121.36,160.45l-.25-.71c-.32-.9-.77-1.19-1.47-.94l-1,.34,1.18,3.34.78-.27c.74-.26,1.08-.75.72-1.76" transform="translate(-0.28 -11.68)"/><path class="cls-1" d="M121.39,164l-.89.31,1.37,3.89,1.14-.4c.67-.24.93-.67.59-1.61l-.39-1.11c-.41-1.17-.92-1.4-1.82-1.08" transform="translate(-0.28 -11.68)"/><polygon class="cls-1" points="128.4 151.23 130.22 150.33 126.3 144.7 128.4 151.23"/><path class="cls-1" d="M134.56,152.81c-.52-.81-1-1-1.65-.57l-.85.55,2.25,3.45.69-.45c.66-.43.87-1,.28-1.88Z" transform="translate(-0.28 -11.68)"/><path class="cls-1" d="M67.3,164.86c.6.3,1.14.15,1.56-.71L72,157.63c.42-.86.2-1.37-.41-1.67s-1.14-.15-1.56.72l-3.17,6.51c-.42.87-.2,1.38.4,1.67" transform="translate(-0.28 -11.68)"/><path class="cls-1" d="M.28,117.34v1.8H14.54c.26.85.48,1.56.69,2.27.82,2.77,1.44,5.62,2.51,8.28a97.29,97.29,0,0,0,7,14.39,86.5,86.5,0,0,0,10.71,14.36,85.25,85.25,0,0,0,8,7.57,103.76,103.76,0,0,0,10.52,7.81,79,79,0,0,0,17.37,8.28,104,104,0,0,0,13.82,3.63,84.86,84.86,0,0,0,16,1.26c1.64,0,3.28-.14,4.92-.26a47.1,47.1,0,0,0,7.26-.6c5.54-1.26,11.11-2.52,16.49-4.32A70.15,70.15,0,0,0,148,172.58a111.7,111.7,0,0,0,10-7.6,99.56,99.56,0,0,0,9.06-9.31,64.83,64.83,0,0,0,6.72-9.11,131.64,131.64,0,0,0,7.38-14.19A108.29,108.29,0,0,0,185,120.54c.29-1,.63-1.46,1.78-1.44,3.94.09,7.87,0,11.8,0H200v-1.8ZM176,119.24a78.6,78.6,0,0,1-18.49,32.62l-1.49-.63c-.19-.08-.37-.19-.61-.32,1.38-1.6,2.75-3.12,4.05-4.71a76,76,0,0,0,13.72-25.26c.6-1.91.6-1.91,2.82-1.7m-3.49,0a75.4,75.4,0,0,1-18.32,31.16l-2.14-.9c1-1.1,1.88-2.07,2.75-3.05a73.35,73.35,0,0,0,14.84-25.5c.64-1.89.64-1.89,2.87-1.71m-3.66,0c-1.42,7.88-12,25.24-18,29.46-1.19-1.5-1.19-1.57.08-2.91a68.61,68.61,0,0,0,15.2-25c.51-1.47,1.13-2.1,2.72-1.58m-8.43-.1c1.64-.06,3.28,0,4.94,0-.81,6.18-10.62,22.35-16.15,26.57a43.4,43.4,0,0,1-1.71-4.19,2.27,2.27,0,0,1,.44-1.82,67.35,67.35,0,0,0,11.7-19.82,1.23,1.23,0,0,1,.78-.71m-9.27,0c-5.77,16.68-25.28,34.56-51.34,34.47-26.82-.1-45.65-19-50.94-34.47Zm-12.85,43.25-1.76,1.15-7.34-11.24,2.67-1.74c1.83-1.2,3.17-.86,4.3.88l.58.88a2.67,2.67,0,0,1,.33,3c1.13-.2,2,.46,2.73,1.63l1.14,1.74a4,4,0,0,0,1.08,1.24l-1.8,1.17a4.28,4.28,0,0,1-1.06-1.28l-1.15-1.76c-.68-1-1.29-1.2-2.09-.68l-.61.4ZM130,167l-1.74.86-4-13,2.76-1.37,7.88,11.08-1.91.95-1.4-2-2.32,1.15Zm-4.75-2.52.36,1a2.85,2.85,0,0,1-2,4.06l-3.13,1.11L116.05,158l3-1.06c2.06-.73,3.29-.08,4,1.87l.16.45c.46,1.31.36,2.28-.38,3,1.21,0,2,.85,2.44,2.19m-18.42-.9,0-.25c-.37-2.12.45-3.45,2.53-3.81l2.38-.42L112,161l-2.34.41c-.66.12-1,.53-.84,1.47l.15.81c.18,1.06.71,1.32,1.49,1.18l.9-.16-.25-1.47,2.07-.36.26,1.47.55-.09.33,1.88-.55.1.76,4.35a3.93,3.93,0,0,0,.51,1.56l-2.12.37a3.28,3.28,0,0,1-.37-1,2,2,0,0,1-1.72,1.52c-1.53.27-2.49-.67-2.83-2.62l-.23-1.34a2.76,2.76,0,0,1,.95-3c-1.06-.24-1.67-1.05-1.91-2.46m-7.68,2.5,2.9,0V168l-2.89,0,0,3.93,3.64,0,0,1.92-5.76,0L97,160.45l5.75,0,0,1.91-3.65,0Zm-6.23-4.17c-.67-.06-1.12.26-1.21,1.22L91,170.36c-.09.95.3,1.33,1,1.4s1.12-.24,1.21-1.2l.23-2.46-1-.09.18-1.91,2.94.28-.4,4.24c-.2,2.14-1.39,3.26-3.45,3.06s-3-1.52-2.81-3.66l.65-7C89.8,160.94,91,159.82,93,160s3,1.52,2.82,3.66l-.13,1.3-2-.19.13-1.43c.09-1-.29-1.36-1-1.43m-29.68.7-1,1.63-4.73-3,7.13-11.37L66.41,151l-6.11,9.75Zm1.82-.47,3-6.28c.94-1.93,2.5-2.54,4.36-1.63s2.34,2.51,1.4,4.44L70.82,165c-.94,1.94-2.5,2.54-4.36,1.64s-2.34-2.51-1.4-4.44m7.49,3.54L75.92,156l2,.69-3.41,9.78c-.32.91,0,1.37.6,1.59s1.14,0,1.46-.87L80,157.45l1.89.66-3.37,9.65c-.71,2-2.13,2.84-4.08,2.15s-2.57-2.19-1.86-4.22m10.08-7.35,2.59.56.41,8.32,1.7-7.85,1.84.39-2.85,13.12-2.12-.46-.5-10.06-2.07,9.51-1.85-.41ZM39.44,119.17a1.41,1.41,0,0,1,1,.76,64.57,64.57,0,0,0,6.83,13.4c1.51,2.29,3.29,4.41,5,6.56a1.56,1.56,0,0,1,.13,2c-.74,1.31-1.34,2.7-2,4a69.29,69.29,0,0,1-16.29-26.82c1.92,0,3.62,0,5.31,0M33.5,120.9a70.32,70.32,0,0,0,16.21,25.94c-.32.64-.65,1.31-1.09,2.18a72.22,72.22,0,0,1-18.19-29.67c2.27-.51,2.35-.47,3.07,1.55m-6.16-1.6c1.26-.46,1.87-.1,2.31,1.25a72.9,72.9,0,0,0,17.13,28.28l.69.73c-1.28,1-2.12.8-3.14-.31A76.36,76.36,0,0,1,27.6,120.71c-.11-.34-.21-.68-.29-1a1.22,1.22,0,0,1,0-.38m-1,1.09A75.83,75.83,0,0,0,43.53,150l.54.6a1.79,1.79,0,0,1,.12.24c-1.48,1.1-1.66,1.09-2.8-.17a78.25,78.25,0,0,1-17.06-30c-.12-.41-.21-.84-.32-1.32,1.18-.34,1.89-.39,2.33,1.06m142,28.07c-15.63,21.15-36.6,33.12-62.83,34.84-47,3.09-80.43-31.79-86.9-64.07h4.14a80.67,80.67,0,0,0,18.34,32.85l-1.86,1.13c17.91,18.94,39.62,28.38,65.51,27,22.22-1.19,40.84-10.51,56.16-27.12l-2.07-.86a80.48,80.48,0,0,0,18.48-33c.34,0,.6-.07.86-.07,1.12,0,2.23,0,3.64,0a79.91,79.91,0,0,1-13.47,29.32" transform="translate(-0.28 -11.68)"/><path class="cls-1" d="M110.07,169.89c.16.94.64,1.23,1.3,1.11s1-.5.88-1.34l-.54-3.06-.79.14c-.94.17-1.28.69-1.07,1.92Z" transform="translate(-0.28 -11.68)"/><path class="cls-1" d="M80.83,59.7V52.91h.6a2.81,2.81,0,0,0,.39.9.78.78,0,0,0,.58.2,2.56,2.56,0,0,0,.53-.07l1.61-.42v-1.1a1.3,1.3,0,0,0-.26-.86,2,2,0,0,0-.94-.49v-.6h7.81v.6a2.09,2.09,0,0,0-.94.48,1.27,1.27,0,0,0-.26.87V74.07a1.32,1.32,0,0,0,.26.88,2,2,0,0,0,.94.49V76H83.34v-.6a2,2,0,0,0,.94-.49,1.32,1.32,0,0,0,.26-.88V57.89l-1.76.43a1.8,1.8,0,0,0-.89.43,2.39,2.39,0,0,0-.46,1Z" transform="translate(-0.28 -11.68)"/><path class="cls-1" d="M117.13,62.36c3.8,1,5.71,3,5.71,6a7.07,7.07,0,0,1-2.42,5.31q-3,2.79-9.85,2.79a19.05,19.05,0,0,1-7.75-1.36,7.86,7.86,0,0,1-3.24-2.72,6.93,6.93,0,0,1-1.29-4q0-4.55,5.71-6-4.6-1.81-4.61-5.46a5.64,5.64,0,0,1,2.1-4.41c1.9-1.64,4.92-2.47,9.06-2.47a17.83,17.83,0,0,1,7.27,1.31,7.37,7.37,0,0,1,2.81,2.21,5.4,5.4,0,0,1,1.1,3.36q0,3.65-4.6,5.46m-6.62,2.1a9.17,9.17,0,0,0-5.1,1.24A3,3,0,0,0,104,68.31a3.14,3.14,0,0,0,1.75,2.81,9.56,9.56,0,0,0,4.8,1,9.21,9.21,0,0,0,5.17-1.24,3,3,0,0,0,1.41-2.55,3.17,3.17,0,0,0-1.73-2.86,9.89,9.89,0,0,0-4.89-1m0-10.43a8.91,8.91,0,0,0-4.18.83,2.54,2.54,0,0,0-1.54,2.26,2.51,2.51,0,0,0,1.55,2.25,11.19,11.19,0,0,0,8.41,0,2.48,2.48,0,0,0,1.56-2.21,2.55,2.55,0,0,0-1.52-2.31,9.12,9.12,0,0,0-4.28-.82" transform="translate(-0.28 -11.68)"/><path class="cls-1" d="M92.82,133.19c3.8,1,5.71,3,5.71,6a7.07,7.07,0,0,1-2.42,5.32q-3,2.79-9.85,2.79a18.88,18.88,0,0,1-7.75-1.37,7.84,7.84,0,0,1-3.24-2.71,7,7,0,0,1-1.29-4q0-4.54,5.71-6-4.6-1.81-4.61-5.47a5.62,5.62,0,0,1,2.1-4.4q2.85-2.47,9.06-2.47a17.83,17.83,0,0,1,7.27,1.31,7.2,7.2,0,0,1,2.81,2.21,5.33,5.33,0,0,1,1.1,3.35q0,3.66-4.6,5.47m-6.61,2.1a9.2,9.2,0,0,0-5.11,1.24,3,3,0,0,0-1.41,2.61,3.1,3.1,0,0,0,1.76,2.8,9.44,9.44,0,0,0,4.79,1,9.3,9.3,0,0,0,5.17-1.24,3,3,0,0,0,1.41-2.56,3.17,3.17,0,0,0-1.73-2.85,9.76,9.76,0,0,0-4.88-1m0-10.43a8.79,8.79,0,0,0-4.18.83A2.54,2.54,0,0,0,80.49,128,2.49,2.49,0,0,0,82,130.19a11.07,11.07,0,0,0,8.41,0A2.47,2.47,0,0,0,92,128a2.54,2.54,0,0,0-1.52-2.3,9.09,9.09,0,0,0-4.28-.82" transform="translate(-0.28 -11.68)"/><path class="cls-1" d="M117.71,142.55H104.26a3.1,3.1,0,0,0-1.43.22,1.43,1.43,0,0,0-.5,1h-.6v-5.41l12.7-14.27a2.79,2.79,0,0,0,.82-1.37c0-.43-.32-.7-1-.8v-.6H125v.6a6.68,6.68,0,0,0-1.27.49.92.92,0,0,0-.6.86v15.09h1.4a1.27,1.27,0,0,0,.88-.27,1.91,1.91,0,0,0,.49-.93h.6v6.61h-.6a2,2,0,0,0-.49-.93,1.27,1.27,0,0,0-.88-.27h-1.4v2.35a1.34,1.34,0,0,0,.26.88,1.91,1.91,0,0,0,.94.48v.6h-7.81v-.6a1.83,1.83,0,0,0,.93-.48,1.29,1.29,0,0,0,.27-.88Zm0-4.21V127.12l-9.86,11.22Z" transform="translate(-0.28 -11.68)"/></svg>