<svg id="Layer_1" data-name="Layer 1" xmlns="http://www.w3.org/2000/svg" viewBox="0 0 200.34 18.14"><defs><style>.cls-1{fill:#7e829c;}</style></defs><title>teamenergo</title><path class="cls-1" d="M82.36,90.93H-.34v18.14H200V90.93ZM17.88,96.5H12.22v10.21H8.09V96.5H2.43V93.19H17.88Zm16.74,10.21H19.68V93.19H34.46v3.29H23.81v2h10v2.84h-10v2.07H34.62Zm16.42,0-1.31-2.25H41.49l-1.32,2.25h-4.5l7.38-13.52h5.27l7.26,13.52Zm27.78,0h-4V97.07l-5.59,9.64H66.54L61,97.07v9.64H57V93.19h6.11l4.81,8.44,4.92-8.44h6Zm119.88,1.08H82.36V92.21H198.7Z" transform="translate(0.34 -90.93)"/><polygon class="cls-1" points="43.39 10.28 48.58 10.28 45.96 5.5 43.39 10.28"/><path class="cls-1" d="M88.78,96.48v2h10v2.84h-10v2.07H99.59v3.27H84.65V93.19H99.42v3.29Z" transform="translate(0.34 -90.93)"/><path class="cls-1" d="M114.24,106.71l-8.12-9.84v9.84H102V93.19h6.12l8.06,9.91V93.19h4.11v13.52Z" transform="translate(0.34 -90.93)"/><path class="cls-1" d="M127.07,96.48v2h10v2.84h-10v2.07h10.82v3.27H122.94V93.19h14.78v3.29Z" transform="translate(0.34 -90.93)"/><path class="cls-1" d="M151.21,93.19a14.68,14.68,0,0,1,2.59.19,4,4,0,0,1,1.72.7,2.81,2.81,0,0,1,.95,1.36,7,7,0,0,1,.28,2.17,5.38,5.38,0,0,1-.49,2.57,2.49,2.49,0,0,1-1.76,1.19,2.44,2.44,0,0,1,2.14,2.57v2.77h-4.13v-2.06a2,2,0,0,0-.1-.7.94.94,0,0,0-.33-.43,1.41,1.41,0,0,0-.57-.21,5.26,5.26,0,0,0-.86-.06h-6.16v3.46h-4.15V93.19Zm-6.72,3.36v3.32h6.57a1.41,1.41,0,0,0,1.18-.41,2.34,2.34,0,0,0,.31-1.38,1.63,1.63,0,0,0-.35-1.15,1.48,1.48,0,0,0-1.14-.38Z" transform="translate(0.34 -90.93)"/><path class="cls-1" d="M172.18,98a1.72,1.72,0,0,0-.19-.88,1.06,1.06,0,0,0-.56-.48,2.91,2.91,0,0,0-1-.21c-.4,0-.86,0-1.4,0h-2.4a12.34,12.34,0,0,0-1.65.09,2.16,2.16,0,0,0-1,.37,1.42,1.42,0,0,0-.51.81,5.78,5.78,0,0,0-.14,1.39V101a3.85,3.85,0,0,0,.18,1.29,1.5,1.5,0,0,0,.57.77,2.46,2.46,0,0,0,1,.38,9.6,9.6,0,0,0,1.54.1h2.38c.54,0,1,0,1.4-.06a3.67,3.67,0,0,0,1-.22,1.18,1.18,0,0,0,.57-.44,1.21,1.21,0,0,0,.19-.71c0-.06,0-.13,0-.19l0-.22H167.3V98.92h9.16v4.45a3.5,3.5,0,0,1-.38,1.7,2.74,2.74,0,0,1-1.17,1.08,6.33,6.33,0,0,1-2,.56,19.16,19.16,0,0,1-2.81.17h-4.59c-.54,0-1,0-1.49,0a10.4,10.4,0,0,1-1.3-.13,5.69,5.69,0,0,1-1.1-.3,4.47,4.47,0,0,1-1-.54,3.65,3.65,0,0,1-1.21-1.62,6.73,6.73,0,0,1-.35-2.35V98.23a7.9,7.9,0,0,1,.34-2.53,3.31,3.31,0,0,1,1.12-1.6,4.61,4.61,0,0,1,2-.84,15.28,15.28,0,0,1,2.94-.24h4.61a25.29,25.29,0,0,1,3,.15,4,4,0,0,1,2,.72,2.84,2.84,0,0,1,1,1.34,6.2,6.2,0,0,1,.3,2.07v.37c0,.12,0,.26,0,.39h-4.15Z" transform="translate(0.34 -90.93)"/><path class="cls-1" d="M185.39,106.88q-.91,0-1.68,0c-.52,0-1-.06-1.43-.12a5.92,5.92,0,0,1-1.19-.29,3.89,3.89,0,0,1-1-.51,3.14,3.14,0,0,1-1.15-1.58,8,8,0,0,1-.32-2.44V98.23a9.06,9.06,0,0,1,.32-2.61A3.23,3.23,0,0,1,180.12,94a4.51,4.51,0,0,1,2.12-.78,23.06,23.06,0,0,1,3.13-.17h4.86a23.48,23.48,0,0,1,3.15.17,4.36,4.36,0,0,1,2.11.78,3.16,3.16,0,0,1,1.12,1.59,8,8,0,0,1,.34,2.5v3.78a8,8,0,0,1-.34,2.5,3.16,3.16,0,0,1-1.12,1.59,4.24,4.24,0,0,1-2.13.79,25.26,25.26,0,0,1-3.13.16Zm3.74-3.39a13,13,0,0,0,1.67-.09,2.69,2.69,0,0,0,1.13-.37,1.6,1.6,0,0,0,.63-.79,3.8,3.8,0,0,0,.2-1.33V99a3.8,3.8,0,0,0-.2-1.33,1.6,1.6,0,0,0-.63-.79,2.69,2.69,0,0,0-1.13-.37,13,13,0,0,0-1.67-.09h-2.64a13.5,13.5,0,0,0-1.7.09,2.69,2.69,0,0,0-1.12.38,1.54,1.54,0,0,0-.62.81,4.06,4.06,0,0,0-.19,1.38V101a3.66,3.66,0,0,0,.2,1.3,1.66,1.66,0,0,0,.65.78,2.64,2.64,0,0,0,1.12.37,13.27,13.27,0,0,0,1.68.09Z" transform="translate(0.34 -90.93)"/></svg>